<?xml version="1.0"?>
<svg xmlns="http://www.w3.org/2000/svg" xmlns:xlink="http://www.w3.org/1999/xlink" version="1.1" id="Capa_1" x="0px" y="0px" viewBox="0 0 511.906 511.906" style="enable-background:new 0 0 511.906 511.906;" xml:space="preserve" width="512px" height="512px"><g><g>
	<g>
		<g>
			<path d="M447.826,161.505c0-0.528,0-1.072,0-1.6c-0.053-52.997-43.003-95.947-96-96c-7.608,0.005-15.187,0.924-22.576,2.736     c-42.735-67.071-131.751-86.8-198.822-44.064C92.145,46.968,67.605,87.983,64.21,133.249     C14.187,150.82-12.12,205.617,5.452,255.639c11.657,33.186,40.531,57.34,75.254,62.953c-0.56,5.696-0.88,11.472-0.88,17.312     c0,97.202,78.798,176,176,176s176-78.798,176-176c0-5.36-0.496-10.672-0.976-16h0.976c44.183,0.044,80.036-35.737,80.08-79.92     C511.944,201.909,485.141,169.082,447.826,161.505z M431.826,287.905h-6.928c-3.253-11.825-7.741-23.275-13.392-34.16     l-28.288,14.96c37.114,70.338,10.18,157.445-60.158,194.558c-70.338,37.114-157.445,10.18-194.558-60.158     s-10.18-157.445,60.158-194.558c20.703-10.924,43.758-16.636,67.166-16.642c4.16,0,8.272,0.176,12.336,0.528l2.704-31.888     c-4.96-0.432-9.984-0.64-15.04-0.64c-78.294,0.129-147.114,51.899-168.944,127.088c-34.922-4.853-59.298-37.097-54.446-72.019     c3.731-26.853,24.016-48.42,50.59-53.789l12.8-2.592v-14.688C95.93,82.049,146.159,31.99,208.015,32.094     c41.997,0.071,80.425,23.631,99.539,61.026l6.672,13.072l13.6-5.488c7.612-3.144,15.764-4.775,24-4.8c35.346,0,64,28.654,64,64     c0.007,4.343-0.432,8.675-1.312,12.928l-4.08,19.792l20.192-0.56c0.896,0,1.776-0.128,1.2-0.16c26.51,0,48,21.49,48,48     C479.826,266.414,458.335,287.905,431.826,287.905z" data-original="#000000" class="active-path" data-old_color="#ffffff" fill="#ffffff"/>
			<path d="M337.97,180.209c-10.386-5.479-21.294-9.906-32.56-13.216l-9.008,30.704c9.212,2.698,18.127,6.321,26.608,10.816     L337.97,180.209z" data-original="#000000" class="active-path" data-old_color="#ffffff" fill="#ffffff"/>
			<path d="M367.25,199.649l-20.224,24.768c7.419,6.073,14.215,12.869,20.288,20.288l24.768-20.256     C384.647,215.379,376.329,207.072,367.25,199.649z" data-original="#000000" class="active-path" data-old_color="#ffffff" fill="#ffffff"/>
			<polygon points="231.826,361.281 195.138,324.593 172.514,347.217 231.826,406.529 339.138,299.217 316.514,276.593    " data-original="#000000" class="active-path" data-old_color="#ffffff" fill="#ffffff"/>
		</g>
	</g>
</g></g> </svg>
