<?xml version="1.0"?>
<svg xmlns="http://www.w3.org/2000/svg" xmlns:xlink="http://www.w3.org/1999/xlink" version="1.1" id="Capa_1" x="0px" y="0px" viewBox="0 0 512 512" style="enable-background:new 0 0 512 512;" xml:space="preserve" width="512px" height="512px" class=""><g><g>
	<g>
		<path d="M315.854,285.303c-5.507,0-9.976,4.469-9.976,9.976s4.469,9.976,9.976,9.976s9.976-4.469,9.976-9.976    S321.36,285.303,315.854,285.303z" data-original="#000000" class="active-path" data-old_color="#ffffff" fill="#ffffff"/>
	</g>
</g><g>
	<g>
		<path d="M317.451,179.582l-22.418-12.945c0.583-3.801,0.87-7.447,0.87-11.016s-0.286-7.215-0.87-11.016l22.418-12.945    c4.77-2.755,6.404-8.855,3.65-13.627L301.15,83.476c-1.323-2.291-3.501-3.963-6.057-4.648c-2.558-0.685-5.279-0.326-7.57,0.997    l-22.507,12.996c-5.746-4.454-12.097-8.082-18.992-10.848V52.871c0-5.51-4.466-9.976-9.976-9.976h-39.903    c-5.51,0-9.976,4.466-9.976,9.976v29.117c-6.845,2.765-13.252,6.425-18.973,10.84l-22.527-13.002    c-4.772-2.755-10.87-1.12-13.626,3.652l-19.951,34.556c-2.754,4.771-1.12,10.871,3.65,13.627l22.418,12.945    c-0.583,3.801-0.87,7.447-0.87,11.016c0,3.569,0.286,7.215,0.87,11.016l-22.418,12.945c-4.77,2.754-6.404,8.854-3.65,13.626    l19.951,34.556c2.755,4.771,8.856,6.406,13.626,3.652l22.527-13.002c5.721,4.414,12.127,8.074,18.973,10.84v26.123    c0,5.51,4.466,9.976,9.976,9.976h39.903c5.51,0,9.976-4.466,9.976-9.976v-26.11c6.894-2.764,13.246-6.392,18.992-10.848    l22.507,12.996c2.29,1.323,5.015,1.683,7.57,0.997c2.556-0.684,4.734-2.356,6.057-4.648l19.951-34.556    C323.855,188.437,322.221,182.337,317.451,179.582z M288.859,209.148l-19.971-11.532c-3.818-2.205-8.63-1.642-11.835,1.385    c-6.663,6.288-14.697,10.878-23.882,13.645c-4.215,1.269-7.099,5.15-7.099,9.552v23.203h-19.951v-23.203    c0-4.401-2.885-8.283-7.099-9.552c-9.187-2.766-17.217-7.356-23.868-13.64c-3.204-3.029-8.018-3.595-11.838-1.39l-19.981,11.534    l-9.976-17.279l19.952-11.522c3.821-2.207,5.738-6.661,4.714-10.953c-1.2-5.03-1.783-9.536-1.783-13.776    c0-4.241,0.583-8.747,1.783-13.776c1.023-4.292-0.894-8.747-4.714-10.953l-19.952-11.522l9.976-17.279l19.981,11.534    c3.821,2.205,8.633,1.64,11.838-1.39c6.651-6.284,14.68-10.873,23.868-13.64c4.215-1.269,7.099-5.15,7.099-9.552V62.847h19.951    v26.196c0,4.401,2.885,8.283,7.099,9.552c9.185,2.765,17.219,7.357,23.882,13.645c3.205,3.026,8.018,3.589,11.835,1.385    l19.971-11.532l9.976,17.277l-19.952,11.522c-3.821,2.207-5.738,6.661-4.715,10.953c1.2,5.03,1.783,9.536,1.783,13.776    c0,4.241-0.583,8.747-1.783,13.776c-1.023,4.293,0.894,8.747,4.715,10.953l19.952,11.522L288.859,209.148z" data-original="#000000" class="active-path" data-old_color="#ffffff" fill="#ffffff"/>
	</g>
</g><g>
	<g>
		<path d="M216.097,115.717c-22.002,0-39.903,17.9-39.903,39.903c0,22.002,17.9,39.903,39.903,39.903    c22.002,0,39.903-17.9,39.903-39.903C256,133.618,238.1,115.717,216.097,115.717z M216.097,175.571    c-11.001,0-19.951-8.95-19.951-19.951c0-11.001,8.95-19.951,19.951-19.951s19.951,8.95,19.951,19.951    C236.049,166.621,227.099,175.571,216.097,175.571z" data-original="#000000" class="active-path" data-old_color="#ffffff" fill="#ffffff"/>
	</g>
</g><g>
	<g>
		<path d="M275.951,285.303H136.292c-5.51,0-9.976,4.466-9.976,9.976s4.466,9.976,9.976,9.976h139.659    c5.51,0,9.976-4.466,9.976-9.976S281.461,285.303,275.951,285.303z" data-original="#000000" class="active-path" data-old_color="#ffffff" fill="#ffffff"/>
	</g>
</g><g>
	<g>
		<path d="M481.45,165.596h-35.912V29.927C445.537,13.425,432.112,0,415.61,0H30.55C14.049,0,0.623,13.425,0.623,29.927V315.23    c0,16.502,13.425,29.927,29.927,29.927h55.864v64.393c0,3.774,2.129,7.223,5.502,8.916c1.415,0.709,2.947,1.059,4.473,1.059    c2.11,0,4.208-0.668,5.963-1.978l43.916-32.739v36.164c0,16.502,13.425,29.927,29.927,29.927h182.597l70.374,58.781    c1.83,1.528,4.102,2.319,6.397,2.319c1.434,0,2.875-0.309,4.224-0.94c3.508-1.641,5.75-5.163,5.75-9.036v-51.125h35.912    c16.502,0,29.927-13.425,29.927-29.927v-225.45C511.377,179.021,497.951,165.596,481.45,165.596z M106.365,389.671v-54.489    c0-5.51-4.466-9.976-9.976-9.976H30.55c-5.501,0-9.976-4.475-9.976-9.976V29.927c0-5.501,4.475-9.976,9.976-9.976h385.06    c5.501,0,9.976,4.475,9.976,9.976V315.23c0,5.501-4.475,9.976-9.976,9.976H196.146c-2.149,0-4.24,0.693-5.962,1.978    L106.365,389.671z M491.425,420.972c0,5.501-4.475,9.976-9.976,9.976h-45.888c-5.51,0-9.976,4.466-9.976,9.976v39.771    l-56.78-47.426c-1.794-1.498-4.057-2.319-6.395-2.319H176.195c-5.501,0-9.976-4.475-9.976-9.976v-51.037l33.236-24.779H415.61    c16.502,0,29.927-13.425,29.927-29.927V185.547h35.912c5.501,0,9.976,4.475,9.976,9.976V420.972z" data-original="#000000" class="active-path" data-old_color="#ffffff" fill="#ffffff"/>
	</g>
</g></g> </svg>
