<?xml version="1.0"?>
<svg xmlns="http://www.w3.org/2000/svg" xmlns:xlink="http://www.w3.org/1999/xlink" version="1.1" id="Layer_1" x="0px" y="0px" viewBox="0 0 512 512" style="enable-background:new 0 0 512 512;" xml:space="preserve" width="512px" height="512px" class=""><g><g>
	<g>
		<path d="M474.485,23.06H37.515C16.829,23.06,0,39.889,0,60.575v245.749v30.417v44.7c0,20.686,16.829,37.515,37.515,37.515h144.651    l-5.733,39.567h-39.06v30.417h34.653h167.948h34.653v-30.417h-39.06l-5.733-39.567h144.65c20.686,0,37.515-16.829,37.515-37.515    v-44.7v-30.417V60.575C512,39.889,495.171,23.06,474.485,23.06z M207.168,458.522l5.733-39.567h86.2l5.732,39.567H207.168z     M481.583,381.441c0,3.914-3.185,7.097-7.097,7.097H325.428H186.572H37.515c-3.914,0-7.097-3.184-7.097-7.097v-44.7h451.166    V381.441z M481.583,306.324H30.417V60.575c0-3.914,3.184-7.097,7.097-7.097h436.971c3.913,0,7.097,3.184,7.097,7.097V306.324z" data-original="#000000" class="active-path" data-old_color="#ffffff" fill="#ffffff"/>
	</g>
</g><g>
	<g>
		<rect x="235.054" y="347.436" width="41.895" height="30.417" data-original="#000000" class="active-path" data-old_color="#ffffff" fill="#ffffff"/>
	</g>
</g><g>
	<g>
		<path d="M363.173,68.293l-5.935,29.231H116.783l25.323,124.716c-11.438,6.274-19.211,18.432-19.211,32.372    c0,20.346,16.552,36.898,36.898,36.898s36.898-16.552,36.898-36.898c0-2.212-0.207-4.375-0.582-6.481h112.838    c-0.375,2.106-0.582,4.269-0.582,6.481c0,20.346,16.552,36.898,36.898,36.898s36.899-16.552,36.899-36.898    c0-13.941-7.773-26.098-19.21-32.372L388.036,98.71h27.148V68.293H363.173z M305.79,127.94h45.272l-5.841,28.762l-0.186,0.917    h-41.254L305.79,127.94z M199.268,127.941l2.009,29.678h-41.255l-6.026-29.678H199.268z M159.794,261.092    c-3.573,0-6.481-2.908-6.481-6.481c0-3.573,2.908-6.481,6.481-6.481s6.481,2.907,6.481,6.481    C166.275,258.184,163.367,261.092,159.794,261.092z M172.225,217.713l-6.026-29.678h37.137l2.008,29.678H172.225z     M269.227,217.713h-33.396l-2.009-29.678h37.413L269.227,217.713z M273.294,157.618h-41.53l-2.009-29.678h45.547L273.294,157.618z     M299.715,217.713l2.008-29.678h37.136l-6.026,29.678H299.715z M345.264,261.092c-3.573,0-6.481-2.908-6.481-6.481    s2.907-6.481,6.481-6.481c3.574,0,6.482,2.908,6.482,6.481S348.837,261.092,345.264,261.092z" data-original="#000000" class="active-path" data-old_color="#ffffff" fill="#ffffff"/>
	</g>
</g></g> </svg>
